<svg xmlns="http://www.w3.org/2000/svg" width="24" height="24" viewBox="0 0 24 24">
    <g fill="none" fill-rule="evenodd">
        <g fill="#FFF" fill-rule="nonzero">
            <g>
                <g>
                    <g>
                        <path d="M23.939 7.056c-.056-1.275-.262-2.152-.558-2.912-.305-.806-.774-1.528-1.388-2.128-.6-.61-1.327-1.083-2.124-1.383-.765-.295-1.637-.502-2.912-.558C15.672.015 15.264 0 12.005 0c-3.26 0-3.667.014-4.948.07-1.275.057-2.152.263-2.912.558-.806.305-1.528.774-2.129 1.388-.61.6-1.083 1.327-1.383 2.124C.338 4.904.131 5.776.075 7.05.015 8.336 0 8.744 0 12.002c0 3.259.014 3.667.07 4.947.057 1.275.263 2.152.558 2.911.305.807.779 1.529 1.388 2.129.6.61 1.328 1.083 2.125 1.383.764.295 1.636.501 2.912.558 1.28.056 1.688.07 4.947.07 3.26 0 3.667-.014 4.947-.07 1.276-.057 2.153-.263 2.912-.558 1.614-.624 2.889-1.899 3.513-3.512.295-.764.501-1.636.558-2.911.056-1.28.07-1.688.07-4.947 0-3.258-.005-3.666-.061-4.946zm-2.162 9.799c-.051 1.172-.248 1.805-.412 2.227-.404 1.045-1.234 1.875-2.28 2.279-.421.164-1.06.36-2.227.412-1.266.056-1.646.07-4.849.07-3.202 0-3.587-.014-4.848-.07-1.173-.051-1.806-.248-2.228-.412-.52-.193-.994-.497-1.378-.896-.399-.39-.704-.858-.896-1.378-.164-.422-.361-1.06-.413-2.227-.056-1.266-.07-1.646-.07-4.848 0-3.203.014-3.587.07-4.848.052-1.172.249-1.805.413-2.227.192-.52.497-.994.9-1.379.39-.398.858-.703 1.379-.895.422-.164 1.06-.36 2.227-.413 1.266-.056 1.646-.07 4.849-.07 3.208 0 3.587.014 4.849.07 1.172.052 1.805.249 2.227.413.52.192.994.497 1.379.895.398.39.703.858.896 1.379.164.422.36 1.06.412 2.227.057 1.266.07 1.645.07 4.848 0 3.202-.013 3.577-.07 4.843z" transform="translate(-1317 -4801) translate(0 4201) translate(0 540) translate(1317 60)"/>
                        <path d="M11.657 6.545c-3.313 0-6 2.688-6 6 0 3.313 2.687 6 6 6 3.312 0 6-2.687 6-6 0-3.312-2.688-6-6-6zm0 9.893c-2.15 0-3.892-1.743-3.892-3.893 0-2.149 1.743-3.892 3.892-3.892s3.892 1.743 3.892 3.892c0 2.15-1.743 3.893-3.892 3.893zM19.636 6c0 .904-.732 1.636-1.636 1.636-.904 0-1.636-.732-1.636-1.636 0-.904.732-1.636 1.636-1.636.904 0 1.636.732 1.636 1.636z" transform="translate(-1317 -4801) translate(0 4201) translate(0 540) translate(1317 60)"/>
                    </g>
                </g>
            </g>
        </g>
    </g>
</svg>
