<svg xmlns="http://www.w3.org/2000/svg" width="28" height="20" viewBox="0 0 28 20">
    <g fill="none" fill-rule="evenodd">
        <g fill="#FFF" fill-rule="nonzero">
            <g>
                <g>
                    <g>
                        <path d="M27.423 3.13C27.1 1.906 26.155.94 24.955.612 22.765 0 14 0 14 0S5.235 0 3.044.588C1.868.918.9 1.906.577 3.13 0 5.365 0 10 0 10s0 4.659.577 6.87c.323 1.224 1.268 2.189 2.468 2.518C5.259 20 14 20 14 20s8.764 0 10.955-.588c1.2-.33 2.145-1.294 2.468-2.518.577-2.235.577-6.87.577-6.87s.023-4.66-.577-6.894zM11.209 14.282V5.718L18.497 10l-7.288 4.282z" transform="translate(-1383 -4803) translate(0 4201) translate(0 540) translate(1383 62)"/>
                    </g>
                </g>
            </g>
        </g>
    </g>
</svg>
